<?xml version="1.0" encoding="utf-8"?>
<!-- Generator: Adobe Illustrator 22.1.0, SVG Export Plug-In . SVG Version: 6.00 Build 0)  -->
<svg version="1.1" id="Layer_1" xmlns="http://www.w3.org/2000/svg" xmlns:xlink="http://www.w3.org/1999/xlink" x="0px" y="0px"
	 viewBox="0 0 512 341.1" style="enable-background:new 0 0 512 341.1;" xml:space="preserve">
	 <style>
	 path, g{
	 fill:#000;}
	 </style>
<g>
	<path d="M0,255.7c28.7,0.1,57.3,0.2,86,0.1c1.8,0,4-1.4,5.4-2.8c16.9-16.8,33.8-33.6,50.6-50.5c52.2-52.2,104.4-104.4,156.5-156.6
		c2.3-2.3,4.6-3.3,7.8-3.2c31,0.1,62,0.1,93,0.1c1.8,0,3.6,0,5.9,0c0-14.2,0-27.9,0-42.7c35.8,21.7,70.8,42.9,106.7,64.7
		c-35.7,21.4-70.8,42.5-106.7,64.1c0-15,0-28.9,0-43.3c-2.3,0-4.1,0-5.9,0c-24.7,0-49.3,0.1-74-0.1c-4.1,0-7.1,1.1-10,4.1
		C246.7,158.2,178,226.9,109.2,295.5c-1.7,1.7-4.8,3-7.2,3c-34,0.2-68,0.1-102,0.1C0,284.4,0,270,0,255.7z"/>
	<path d="M512,278.7c-1.6,0.7-3.3,1.3-4.9,2.2c-32.1,19-64.1,38.1-96.2,57.1c-1.6,0.9-3.1,1.8-5.4,3.1c0-14.3,0-28,0-42.4
		c-2.3,0-4.1,0-5.9,0c-31.2,0-62.3,0-93.5-0.1c-2.2,0-5.1-0.8-6.6-2.3c-24.2-23.9-48.2-48-72.2-72c-0.6-0.6-1.1-1.2-1.2-1.4
		c9.9-10,19.7-19.9,30.9-31.2c0.6,1.1,1.2,3,2.4,4.3c18.9,19,37.9,38,56.9,56.9c1.5,1.5,3.9,3,5.8,3c26.8,0.2,53.6,0.1,80.5,0.1
		c0.6,0,1.3-0.2,2.4-0.3c0-13.5,0-26.9,0-41.4c2.5,1.4,4.1,2.3,5.8,3.2c32.7,19.6,65.4,39.2,98.1,58.8c1,0.6,2,1,3,1.5
		C512,278,512,278.4,512,278.7z"/>
	<path d="M0,42.7c34,0,67.9-0.1,101.9,0.1c2.4,0,5.5,1.3,7.2,3c23.2,22.9,46.2,46.1,69.3,69.1c1.3,1.3,2.9,2.2,4.1,3
		c-10.6,10.6-20.5,20.4-30.7,30.7c-0.7-0.7-2-1.9-3.2-3.1c-18.8-18.8-37.7-37.6-56.5-56.5c-2.4-2.4-4.8-3.6-8.2-3.5
		C55.9,85.6,28,85.6,0,85.7C0,71.4,0,57,0,42.7z"/>
</g>
</svg>
