<?xml version="1.0" encoding="utf-8"?>
<!-- Generator: Adobe Illustrator 22.1.0, SVG Export Plug-In . SVG Version: 6.00 Build 0)  -->
<svg version="1.1" id="Layer_1" xmlns="http://www.w3.org/2000/svg" xmlns:xlink="http://www.w3.org/1999/xlink" x="0px" y="0px"
	 viewBox="0 0 612 619.2" style="enable-background:new 0 0 612 619.2;" xml:space="preserve">
<style type="text/css">
	.st0{fill:#FDF3BF;}
	.st1{fill:#FF5505;}
	.st2{fill:#00A3CF;}
	.st3{fill:#F48B62;}
</style>
<path class="st0" d="M306.7,585.9c-151.8,0-275.3-123.4-275.3-275.3S154.9,35.3,306.7,35.3S582,158.8,582,310.6
	S458.6,585.9,306.7,585.9z"/>
<path class="st1" d="M181.3,203.3c1.2,2.2,2.2,4.5,3.4,6.1c1.1,1.7,2.8,3.4,3.9,5c1.7,1.7,3.4,3.4,5.6,5c1.7,1.2,3.9,2.8,6.7,3.4
	c2.2,1.1,4.5,1.7,7.3,2.2c2.8,0.6,5,0.6,7.3,0.6c2.2,0,5,0,7.3-0.6c2.2-0.6,4.5-1.2,6.2-2.2h0.5c2.3-1.2,4.5-2.2,6.8-4
	c1.7-1.1,3.3-2.8,5-4.5l0.5-0.6c1.7-1.7,2.8-3.3,4-5c1.1-1.7,2.2-3.3,2.8-5.5c0-0.6,0-0.6,0.5-1.2c1.2-2.2,1.7-5,2.2-7.3
	c0.6-2.2,0.6-5,0.6-7.3c0-2.2,0-5-0.6-7.3c-0.5-2.2-1.1-4.5-2.2-7.3c-1.7-3.9-3.9-7.3-6.7-10.1c-0.6-0.5-0.6-0.5-1.1-1.1
	c-1.7-1.7-3.4-2.8-5.6-4.5c-2.2-1.2-3.9-2.2-6.2-3.4c-2.2-1.1-4.5-1.7-6.7-2.2c-2.8-0.6-5-0.6-7.3-0.6c-2.2,0-5,0-7.3,0.6
	s-4.5,1.2-6.7,2.2h-0.6c-2.2,1.2-4.5,2.2-6.1,3.4c-2.2,1.7-4,2.8-5.6,4.5c-1.7,1.7-3.4,3.3-4.5,5c-1.2,1.7-2.2,3.9-3.4,6.1
	c-1.1,2.2-1.7,4.5-2.2,6.7c-0.6,2.8-0.6,5-0.6,7.3s0,5,0.6,7.3C179.6,198.9,180.8,201.1,181.3,203.3z"/>
<path class="st1" d="M259.1,408h-12.8V271c0-7.8-6.2-14.5-14.5-14.5H173c-7.8,0-14.5,6.1-14.5,14.5v30.2c0,7.8,6.1,14.5,14.5,14.5
	h11.7v92.9H173c-7.8,0-14.5,6.2-14.5,14.5v30.2c0,7.8,6.1,14.5,14.5,14.5h86.1c7.8,0,14.5-6.2,14.5-14.5v-30.2
	C273.6,414.8,266.9,408,259.1,408z"/>
<path class="st2" d="M306,3.6C137.1,3.6,0,140.7,0,309.6s137.1,306,306,306s306-137.1,306-306S474.9,3.6,306,3.6z M306,575.4
	c-146.6,0-265.8-119.2-265.8-265.8S159.4,43.8,306,43.8S571.8,163,571.8,309.6S452.6,575.4,306,575.4z"/>
<g id="_2384788595056">
</g>
<g id="_2384788594800">
</g>
<g id="_2384788593392">
</g>
<g id="_2384788594512">
</g>
<g id="_2384788594320">
</g>
<g id="_2384788593776">
</g>
<g id="_2384788591376">
</g>
<g id="_2384788592432">
</g>
<g id="_2384788592144">
</g>
<g id="_2384788592112">
</g>
<g id="_2384788591856">
</g>
<g id="_2384788591664">
</g>
<g id="_2384788592080">
</g>
<g id="_2384788590128">
</g>
<g id="_2384788589264">
</g>
<g id="_2384788575152">
	<path class="st3" d="M310.3,428.3h25.8l15-60.9h54.1l-14.8,60.9h25.8l15-60.9h53.1V346h-47.9l12.9-51.8h35v-21.3h-29.8l15-61.3h-26
		l-15,61.3h-54.3l15-61.3h-25.8l-15,61.3h-52.1v21.3h47L330.5,346h-34.3v21.3h29.1L310.3,428.3z M369,294.2h54.3l-13,51.8h-54.1
		L369,294.2z"/>
</g>
</svg>
