<svg xmlns="http://www.w3.org/2000/svg" height="937.5pt" version="1.1" viewBox="0 0 937.5 937.5" width="937.5pt">
<g id="surface1">
<path d="M 156.25 62.5 C 156.25 45.238281 170.238281 31.25 187.5 31.25 L 875 31.25 C 892.261719 31.25 906.25 45.238281 906.25 62.5 L 906.25 437.5 L 531.25 437.5 L 531.25 468.75 L 906.25 468.75 L 906.25 500 C 906.25 517.261719 892.261719 531.25 875 531.25 L 531.25 531.25 L 531.25 562.5 L 598.546875 562.5 L 633.703125 656.25 L 531.25 656.25 L 531.25 687.5 L 703.125 687.5 L 703.125 656.25 L 667.078125 656.25 L 631.921875 562.5 L 875 562.5 C 909.515625 562.5 937.5 534.515625 937.5 500 L 937.5 62.5 C 937.5 27.984375 909.515625 0 875 0 L 187.5 0 C 152.984375 0 125 27.984375 125 62.5 L 125 250 L 156.25 250 Z M 156.25 62.5 " style=" stroke:none;fill-rule:nonzero;fill:rgb(255%,255%,255%);fill-opacity:1;" />
<path d="M 15.625 937.5 L 375 937.5 C 379.144531 937.496094 383.109375 935.84375 386.046875 932.921875 L 495.421875 823.546875 C 496.726562 822.21875 497.792969 820.671875 498.546875 818.96875 C 498.769531 818.480469 498.898438 818.015625 499.0625 817.507812 C 499.511719 816.203125 499.785156 814.835938 499.878906 813.453125 C 499.878906 813.125 500.058594 812.832031 500.058594 812.5 L 500.058594 296.875 C 500.058594 288.242188 493.066406 281.25 484.433594 281.25 L 15.625 281.25 C 6.992188 281.25 0 288.242188 0 296.875 L 0 921.875 C 0 930.507812 6.992188 937.5 15.625 937.5 Z M 390.625 884.15625 L 390.625 828.125 L 446.65625 828.125 Z M 31.25 312.5 L 468.75 312.5 L 468.75 796.875 L 375 796.875 C 366.367188 796.875 359.375 803.867188 359.375 812.5 L 359.375 906.25 L 31.25 906.25 Z M 31.25 312.5 " style=" stroke:none;fill-rule:nonzero;fill:rgb(255%,255%,255%);fill-opacity:1;" />
<path d="M 62.5 343.75 L 125 343.75 L 125 375 L 62.5 375 Z M 62.5 343.75 " style=" stroke:none;fill-rule:nonzero;fill:rgb(255%,255%,255%);fill-opacity:1;" />
<path d="M 62.5 406.25 L 125 406.25 L 125 437.5 L 62.5 437.5 Z M 62.5 406.25 " style=" stroke:none;fill-rule:nonzero;fill:rgb(255%,255%,255%);fill-opacity:1;" />
<path d="M 468.75 203.125 L 718.75 203.125 L 718.75 234.375 L 468.75 234.375 Z M 468.75 203.125 " style=" stroke:none;fill-rule:nonzero;fill:rgb(255%,255%,255%);fill-opacity:1;" />
<path d="M 531.25 281.25 L 656.25 281.25 L 656.25 312.5 L 531.25 312.5 Z M 531.25 281.25 " style=" stroke:none;fill-rule:nonzero;fill:rgb(255%,255%,255%);fill-opacity:1;" />
<path d="M 593.75 125 L 843.75 125 L 843.75 156.25 L 593.75 156.25 Z M 593.75 125 " style=" stroke:none;fill-rule:nonzero;fill:rgb(255%,255%,255%);fill-opacity:1;" />
<path d="M 687.5 281.25 L 843.75 281.25 L 843.75 312.5 L 687.5 312.5 Z M 687.5 281.25 " style=" stroke:none;fill-rule:nonzero;fill:rgb(255%,255%,255%);fill-opacity:1;" />
<path d="M 531.25 359.375 L 718.75 359.375 L 718.75 390.625 L 531.25 390.625 Z M 531.25 359.375 " style=" stroke:none;fill-rule:nonzero;fill:rgb(255%,255%,255%);fill-opacity:1;" />
<path d="M 750 359.375 L 843.75 359.375 L 843.75 390.625 L 750 390.625 Z M 750 359.375 " style=" stroke:none;fill-rule:nonzero;fill:rgb(255%,255%,255%);fill-opacity:1;" />
<path d="M 750 203.125 L 843.75 203.125 L 843.75 234.375 L 750 234.375 Z M 750 203.125 " style=" stroke:none;fill-rule:nonzero;fill:rgb(255%,255%,255%);fill-opacity:1;" />
<path d="M 468.75 125 L 562.5 125 L 562.5 156.25 L 468.75 156.25 Z M 468.75 125 " style=" stroke:none;fill-rule:nonzero;fill:rgb(255%,255%,255%);fill-opacity:1;" />
<path d="M 336.175781 560.265625 C 340.875 557.441406 343.746094 552.363281 343.746094 546.875 C 343.746094 541.386719 340.875 536.308594 336.175781 533.484375 L 265.625 491.15625 L 265.625 468.75 L 273.4375 468.75 C 303.640625 468.75 328.125 444.265625 328.125 414.0625 C 328.125 383.859375 303.640625 359.375 273.4375 359.375 L 226.5625 359.375 C 196.359375 359.375 171.875 383.859375 171.875 414.0625 C 171.875 444.265625 196.359375 468.75 226.5625 468.75 L 234.375 468.75 L 234.375 491.15625 L 163.824219 533.484375 C 159.125 536.308594 156.253906 541.386719 156.253906 546.875 C 156.253906 552.363281 159.125 557.441406 163.824219 560.265625 L 234.375 602.59375 L 234.375 625 L 171.875 625 C 163.242188 625 156.25 631.992188 156.25 640.625 L 156.25 718.75 C 156.25 727.382812 163.242188 734.375 171.875 734.375 L 234.375 734.375 L 234.375 765.625 L 226.5625 765.625 C 196.359375 765.625 171.875 790.109375 171.875 820.3125 C 171.875 850.515625 196.359375 875 226.5625 875 L 273.4375 875 C 303.640625 875 328.125 850.515625 328.125 820.3125 C 328.125 790.109375 303.640625 765.625 273.4375 765.625 L 265.625 765.625 L 265.625 734.375 L 328.125 734.375 C 336.757812 734.375 343.75 727.382812 343.75 718.75 L 343.75 640.625 C 343.75 631.992188 336.757812 625 328.125 625 L 265.625 625 L 265.625 602.59375 Z M 226.5625 437.5 C 213.617188 437.5 203.125 427.007812 203.125 414.0625 C 203.125 401.117188 213.617188 390.625 226.5625 390.625 L 273.4375 390.625 C 286.382812 390.625 296.875 401.117188 296.875 414.0625 C 296.875 427.007812 286.382812 437.5 273.4375 437.5 Z M 273.4375 796.875 C 286.382812 796.875 296.875 807.367188 296.875 820.3125 C 296.875 833.257812 286.382812 843.75 273.4375 843.75 L 226.5625 843.75 C 213.617188 843.75 203.125 833.257812 203.125 820.3125 C 203.125 807.367188 213.617188 796.875 226.5625 796.875 Z M 312.5 656.25 L 312.5 703.125 L 187.5 703.125 L 187.5 656.25 Z M 250 575.53125 L 202.234375 546.875 L 250 518.21875 L 297.765625 546.875 Z M 250 575.53125 " style=" stroke:none;fill-rule:nonzero;fill:rgb(255%,255%,255%);fill-opacity:1;" />
<path d="M 187.5 62.5 L 218.75 62.5 L 218.75 93.75 L 187.5 93.75 Z M 187.5 62.5 " style=" stroke:none;fill-rule:nonzero;fill:rgb(255%,255%,255%);fill-opacity:1;" />
<path d="M 250 62.5 L 281.25 62.5 L 281.25 93.75 L 250 93.75 Z M 250 62.5 " style=" stroke:none;fill-rule:nonzero;fill:rgb(255%,255%,255%);fill-opacity:1;" />
<path d="M 312.5 62.5 L 343.75 62.5 L 343.75 93.75 L 312.5 93.75 Z M 312.5 62.5 " style=" stroke:none;fill-rule:nonzero;fill:rgb(255%,255%,255%);fill-opacity:1;" />
<path d="M 546.875 937.5 L 921.875 937.5 C 930.507812 937.5 937.5 930.507812 937.5 921.875 L 937.5 734.375 C 937.5 725.742188 930.507812 718.75 921.875 718.75 L 546.875 718.75 C 538.242188 718.75 531.25 725.742188 531.25 734.375 L 531.25 921.875 C 531.25 930.507812 538.242188 937.5 546.875 937.5 Z M 562.5 750 L 906.25 750 L 906.25 906.25 L 562.5 906.25 Z M 562.5 750 " style=" stroke:none;fill-rule:nonzero;fill:rgb(255%,255%,255%);fill-opacity:1;" />
<path d="M 593.75 843.75 L 625 843.75 L 625 875 L 593.75 875 Z M 593.75 843.75 " style=" stroke:none;fill-rule:nonzero;fill:rgb(255%,255%,255%);fill-opacity:1;" />
<path d="M 843.75 843.75 L 875 843.75 L 875 875 L 843.75 875 Z M 843.75 843.75 " style=" stroke:none;fill-rule:nonzero;fill:rgb(255%,255%,255%);fill-opacity:1;" />
<path d="M 593.75 781.25 L 625 781.25 L 625 812.5 L 593.75 812.5 Z M 593.75 781.25 " style=" stroke:none;fill-rule:nonzero;fill:rgb(255%,255%,255%);fill-opacity:1;" />
<path d="M 656.25 781.25 L 687.5 781.25 L 687.5 812.5 L 656.25 812.5 Z M 656.25 781.25 " style=" stroke:none;fill-rule:nonzero;fill:rgb(255%,255%,255%);fill-opacity:1;" />
<path d="M 718.75 781.25 L 750 781.25 L 750 812.5 L 718.75 812.5 Z M 718.75 781.25 " style=" stroke:none;fill-rule:nonzero;fill:rgb(255%,255%,255%);fill-opacity:1;" />
<path d="M 781.25 781.25 L 812.5 781.25 L 812.5 812.5 L 781.25 812.5 Z M 781.25 781.25 " style=" stroke:none;fill-rule:nonzero;fill:rgb(255%,255%,255%);fill-opacity:1;" />
<path d="M 843.75 781.25 L 875 781.25 L 875 812.5 L 843.75 812.5 Z M 843.75 781.25 " style=" stroke:none;fill-rule:nonzero;fill:rgb(255%,255%,255%);fill-opacity:1;" />
<path d="M 656.25 843.75 L 812.5 843.75 L 812.5 875 L 656.25 875 Z M 656.25 843.75 " style=" stroke:none;fill-rule:nonzero;fill:rgb(255%,255%,255%);fill-opacity:1;" />
<path d="M 238.953125 129.578125 L 192.078125 176.453125 C 185.980469 182.558594 185.980469 192.441406 192.078125 198.546875 L 238.953125 245.421875 L 261.046875 223.328125 L 225.21875 187.5 L 261.046875 151.671875 Z M 238.953125 129.578125 " style=" stroke:none;fill-rule:nonzero;fill:rgb(255%,255%,255%);fill-opacity:1;" />
<path d="M 386.046875 245.421875 L 432.921875 198.546875 C 439.019531 192.441406 439.019531 182.558594 432.921875 176.453125 L 386.046875 129.578125 L 363.953125 151.671875 L 399.78125 187.5 L 363.953125 223.328125 Z M 386.046875 245.421875 " style=" stroke:none;fill-rule:nonzero;fill:rgb(255%,255%,255%);fill-opacity:1;" />
<path d="M 281.714844 246.214844 L 312.960938 121.214844 L 343.261719 128.789062 L 312.011719 253.789062 Z M 281.714844 246.214844 " style=" stroke:none;fill-rule:nonzero;fill:rgb(255%,255%,255%);fill-opacity:1;" />
</g>
</svg>