<?xml version="1.0" encoding="utf-8"?>
<!-- Generator: Adobe Illustrator 22.1.0, SVG Export Plug-In . SVG Version: 6.00 Build 0)  -->
<svg version="1.1" id="Layer_1" xmlns="http://www.w3.org/2000/svg" xmlns:xlink="http://www.w3.org/1999/xlink" x="0px" y="0px"
	 viewBox="0 0 512 512" style="enable-background:new 0 0 512 512;" xml:space="preserve">
<style type="text/css">
	.st0{fill:#1555A0;}
	.st1{fill:#809DED;}
	.st2{fill:#CEDEEC;}
	.st3{fill:#5D7EAC;}
	.st4{fill:#F9CD45;}
	.st5{fill:#D9B166;}
	.st6{fill:#648FED;}
</style>
<path class="st0" d="M512,203.6v26.8c0,9.4-6.6,17.5-15.9,19.3l-49.2,9.8c-3.4,12.2-8.3,23.9-14.4,34.7l27.8,41.8
	c5.2,7.8,4.2,18.2-2.5,24.9l-19,19c-6.6,6.6-17.1,7.7-24.9,2.5l-41.8-27.8c-10.8,6.1-22.5,11-34.7,14.4l-4.1,20.5h-77l-4.1-20.5
	c-12.2-3.4-23.9-8.3-34.7-14.4l-41.8,27.8c-7.8,5.2-18.2,4.2-24.9-2.5l-19-19c-6.7-6.6-7.7-17.1-2.5-24.9l27.8-41.8
	c-6.1-10.8-11-22.5-14.4-34.7l-49.2-9.8c-9.2-1.8-15.9-9.9-15.9-19.3v-26.8c0-9.4,6.6-17.5,15.9-19.3l49.2-9.8
	c3.4-12.2,8.3-23.9,14.4-34.7L129.5,98c-5.2-7.8-4.2-18.2,2.5-24.9l19-19c6.6-6.7,17.1-7.7,24.9-2.5l41.8,27.8
	c10.8-6.1,22.5-11,34.7-14.4l9.8-49.2C264,6.6,272.1,0,281.5,0h26.8c9.4,0,17.5,6.6,19.3,15.9l9.8,49.2c12.2,3.4,23.9,8.3,34.7,14.4
	L414,51.6c7.8-5.2,18.2-4.2,24.9,2.5l19,19c6.6,6.7,7.7,17.1,2.5,24.9l-27.8,41.8c6.1,10.8,11,22.5,14.4,34.7l49.2,9.8
	C505.4,186.1,512,194.2,512,203.6z"/>
<path class="st1" d="M311.1,320.3c-29.1,4.5-57.3-3.4-79.1-19.8h-31.7v-33.4h2.8c-5.6-10.3-9.6-21.7-11.5-34
	c-8.9-57.1,30.1-110.5,87.2-119.4c57.1-8.9,110.5,30.1,119.4,87.2C407.2,258,368.1,311.4,311.1,320.3z"/>
<path class="st2" d="M354.3,207.8c5.1,32.8-17.3,63.5-50.1,68.6s-63.5-17.3-68.6-50.1s17.3-63.5,50.1-68.6S349.2,175,354.3,207.8z"
	/>
<path class="st1" d="M329,211.7c2.9,18.8-9.9,36.5-28.8,39.4s-36.5-9.9-39.4-28.8c-2.9-18.8,9.9-36.5,28.8-39.4
	C308.5,180,326.1,192.9,329,211.7z"/>
<path class="st3" d="M300.3,251.1c-6.6,1-13,0.1-18.7-2.3c14.3-6,23.2-21.1,20.7-37.1c-1.9-12.3-10.1-22-20.7-26.5
	c2.5-1.1,5.2-1.8,8-2.3c18.8-2.9,36.5,9.9,39.4,28.8C332,230.5,319.1,248.2,300.3,251.1z"/>
<path class="st4" d="M311.7,512H171.6c-10,0-19.7-4-26.8-11.1c-7.2-7.1-16.8-11.2-26.9-11.2h-11.1H66.8v-167h39.6h11.1
	c9.6,0,18.1-6.1,21.1-15.2l3.1-9.3c9.3-28,14.1-57.3,14.1-86.8l0,0c0-6.2,2.5-11.8,6.6-15.8c5.2-5.1,13.2-6.2,19.7-2.8
	c10.8,5.5,18.2,16.8,18.2,29.7l0,66.8h11.1h100.2c12.3,0,22.3,10,22.3,22.3v11.1c0,12.3-10,22.3-22.3,22.3c12.3,0,22.3,10,22.3,22.3
	v11.1c0,12.3-10,22.3-22.3,22.3c12.3,0,22.3,10,22.3,22.3v11.1c0,12.3-10,22.3-22.3,22.3c12.3,0,22.3,10,22.3,22.3v11.1
	C333.9,502,323.9,512,311.7,512z"/>
<path class="st5" d="M211.5,222.6l0,66.8h-11.1c-12.3,0-22.3-10-22.3-22.3l0-44.5c0-11.6-5.9-21.7-14.8-27.7
	c3.9-3.5,9.1-5.7,14.8-5.7l0,0C196.5,189.2,211.5,204.2,211.5,222.6z M345,322.8v-11.1c0-12.3-10-22.3-22.3-22.3h-16.7
	c9.2,0,16.7,7.5,16.7,16.7s-7.5,16.7-16.7,16.7h-5.6h-39h-16.7c-6.1,0-11.1,5-11.1,11.1s5,11.1,11.1,11.1h16.7h39h5.6
	c9.2,0,16.7,7.5,16.7,16.7c0,9.2-7.5,16.7-16.7,16.7h-5.6h-39h-16.7c-6.1,0-11.1,5-11.1,11.1s5,11.1,11.1,11.1h16.7h39h5.6
	c9.2,0,16.7,7.5,16.7,16.7c0,9.2-7.5,16.7-16.7,16.7h-5.6h-39h-16.7c-6.1,0-11.1,5-11.1,11.1s5,11.1,11.1,11.1h16.7h39h5.6
	c9.2,0,16.7,7.5,16.7,16.7s-7.5,16.7-16.7,16.7h-5.6h-39h-16.7c-6.1,0-11.1,5-11.1,11.1s5,11.1,11.1,11.1h44.5h22.3h11.1
	c12.3,0,22.3-10,22.3-22.3v-11.1c0-12.3-10-22.3-22.3-22.3c12.3,0,22.3-10,22.3-22.3V423c0-12.3-10-22.3-22.3-22.3
	c12.3,0,22.3-10,22.3-22.3v-11.1c0-12.3-10-22.3-22.3-22.3C335.1,345,345,335.1,345,322.8z M66.8,489.7h44.5v-167H66.8V489.7z"/>
<path class="st6" d="M89,311.7v189.2c0,6.1-5,11.1-11.1,11.1H11.1C5,512,0,507,0,500.9V311.7c0-6.1,5-11.1,11.1-11.1h66.8
	C84.1,300.5,89,305.5,89,311.7z"/>
<path class="st0" d="M89,311.7v189.2c0,6.1-5,11.1-11.1,11.1H44.5c6.1,0,11.1-5,11.1-11.1V311.7c0-6.1-5-11.1-11.1-11.1h33.4
	C84.1,300.5,89,305.5,89,311.7z"/>
</svg>
