<?xml version="1.0" encoding="utf-8"?>
<!-- Generator: Adobe Illustrator 22.1.0, SVG Export Plug-In . SVG Version: 6.00 Build 0)  -->
<svg version="1.1" id="Capa_1" xmlns="http://www.w3.org/2000/svg" xmlns:xlink="http://www.w3.org/1999/xlink" x="0px" y="0px"
	 viewBox="0 0 512 512" style="enable-background:new 0 0 512 512;" xml:space="preserve">
<style type="text/css">
	.st0{fill:#F2F2F2;}
	.st1{fill:#AAC4DA;}
	.st2{fill:#0B2A49;}
	.st3{fill:#FFE451;}
	.st4{fill:#085584;}
</style>
<path class="st0" d="M288,245.3V256h-64v-10.7c0-17.7,14.3-32,32-32S288,227.7,288,245.3z"/>
<path class="st1" d="M352,245.3V256h-64v-10.7c0-17.7-14.3-32-32-32s-32,14.3-32,32V256h-64v-10.7c0-53,43-96,96-96
	S352,192.3,352,245.3z"/>
<path class="st2" d="M501.3,213.3V256H352v-10.7c0-53-43-96-96-96s-96,43-96,96l0,0V256H10.7v-42.7c0-5.9,4.8-10.7,10.7-10.7h50.3
	c3.9-13.7,9.3-26.9,16.2-39.4l-35.5-35.5c-4.2-4.2-4.2-11,0-15.1l60.3-60.3c4.2-4.2,11-4.2,15.1,0l35.5,35.5
	c12.5-6.9,25.7-12.3,39.4-16.2V21.3c0-5.9,4.8-10.7,10.7-10.7h85.3c5.9,0,10.7,4.8,10.7,10.7v50.3c13.7,3.9,26.9,9.3,39.4,16.2
	l35.5-35.5c4.2-4.2,11-4.2,15.1,0l60.3,60.3c4.2,4.2,4.2,11,0,15.1l-35.5,35.5c6.9,12.5,12.3,25.7,16.2,39.4h50.3
	C496.6,202.7,501.3,207.4,501.3,213.3L501.3,213.3z"/>
<g>
	<path class="st3" d="M384,416h106.7c5.9,0,10.7,4.8,10.7,10.7v64c0,5.9-4.8,10.7-10.7,10.7H384c-5.9,0-10.7-4.8-10.7-10.7v-64
		C373.3,420.8,378.1,416,384,416z"/>
	<path class="st3" d="M202.7,416h106.7c5.9,0,10.7,4.8,10.7,10.7v64c0,5.9-4.8,10.7-10.7,10.7H202.7c-5.9,0-10.7-4.8-10.7-10.7v-64
		C192,420.8,196.8,416,202.7,416z"/>
	<path class="st3" d="M21.3,416H128c5.9,0,10.7,4.8,10.7,10.7v64c0,5.9-4.8,10.7-10.7,10.7H21.3c-5.9,0-10.7-4.8-10.7-10.7v-64
		C10.7,420.8,15.4,416,21.3,416z"/>
</g>
<path class="st4" d="M490.7,192h-42.5c-3-9.1-6.7-18.1-11-26.7l30-30c8.3-8.3,8.3-21.8,0-30.2l0,0l-60.3-60.4
	c-8.4-8.1-21.7-8.1-30.2,0l-30,30c-8.6-4.3-17.5-8-26.7-11V21.3C320,9.6,310.4,0,298.7,0h-85.3C201.6,0,192,9.6,192,21.3v42.5
	c-9.1,3-18.1,6.7-26.7,11l-30-30c-8.4-8.1-21.7-8.1-30.2,0l-60.4,60.4c-8.3,8.3-8.3,21.8,0,30.2l30,30c-4.3,8.6-8,17.5-11,26.7H21.3
	C9.6,192,0,201.6,0,213.3V256h21.3v-42.7h50.3c4.8,0,8.9-3.1,10.3-7.7c3.7-12.9,8.8-25.4,15.3-37.2c2.3-4.2,1.6-9.4-1.8-12.7
	l-35.5-35.5l60.3-60.3l35.5,35.5c3.4,3.4,8.5,4.1,12.7,1.8c11.8-6.5,24.3-11.6,37.2-15.3c4.6-1.3,7.7-5.5,7.7-10.3V21.3h85.3v50.3
	c0,4.8,3.1,8.9,7.7,10.3c12.9,3.7,25.4,8.8,37.2,15.3c4.2,2.3,9.3,1.6,12.7-1.8l35.5-35.5l60.3,60.3l-35.5,35.5
	c-3.4,3.4-4.1,8.5-1.8,12.7c6.5,11.8,11.6,24.2,15.3,37.2c1.3,4.6,5.5,7.7,10.3,7.7h50.3V256H512v-42.6
	C512,201.6,502.4,192,490.7,192L490.7,192z"/>
<path class="st4" d="M149.3,245.3V256h21.3v-10.7c0-47.1,38.2-85.3,85.3-85.3s85.3,38.2,85.3,85.3V256h21.3v-10.7
	c0-58.9-47.8-106.7-106.7-106.7S149.3,186.4,149.3,245.3z"/>
<path class="st3" d="M245.3,42.7h21.3V64h-21.3V42.7L245.3,42.7z"/>
<path class="st3" d="M106.7,106.7H128V128h-21.3V106.7z"/>
<path class="st3" d="M42.7,234.7H64V256H42.7V234.7z"/>
<path class="st3" d="M448,234.7h21.3V256H448V234.7z"/>
<path class="st3" d="M384,106.7h21.3V128H384V106.7z"/>
<path class="st4" d="M128,405.3H21.3C9.6,405.3,0,414.9,0,426.7v64C0,502.4,9.6,512,21.3,512H128c11.8,0,21.3-9.6,21.3-21.3v-64
	C149.3,414.9,139.8,405.3,128,405.3z M128,490.7H21.3v-64H128V490.7z"/>
<path class="st4" d="M490.7,405.3H384c-11.8,0-21.3,9.6-21.3,21.3v64c0,11.8,9.6,21.3,21.3,21.3h106.7c11.8,0,21.3-9.6,21.3-21.3
	v-64C512,414.9,502.4,405.3,490.7,405.3z M490.7,490.7H384v-64h106.7V490.7z"/>
<path class="st4" d="M309.3,405.3H202.7c-11.8,0-21.3,9.6-21.3,21.3v64c0,11.8,9.6,21.3,21.3,21.3h106.7c11.8,0,21.3-9.6,21.3-21.3
	v-64C330.7,414.9,321.1,405.3,309.3,405.3z M309.3,490.7H202.7v-64h106.7L309.3,490.7L309.3,490.7z"/>
<path class="st4" d="M64,330.7V384h21.3v-42.7h160V384h21.3v-42.7h160V384H448v-53.3c0-5.9-4.8-10.7-10.7-10.7H266.7v-74.7h-21.3
	V320H74.7C68.8,320,64,324.8,64,330.7z"/>
<path class="st2" d="M42.7,448H64v21.3H42.7V448z"/>
<path class="st2" d="M85.3,448h21.3v21.3H85.3V448z"/>
<path class="st2" d="M224,448h21.3v21.3H224V448z"/>
<path class="st2" d="M266.7,448H288v21.3h-21.3V448z"/>
<path class="st2" d="M405.3,448h21.3v21.3h-21.3V448z"/>
<path class="st2" d="M448,448h21.3v21.3H448V448z"/>
<path class="st4" d="M309.3,256v-10.7c0-29.5-23.9-53.3-53.3-53.3s-53.3,23.9-53.3,53.3V256H224v-10.7c0-17.7,14.3-32,32-32
	s32,14.3,32,32V256H309.3z"/>
</svg>
