<?xml version="1.0" encoding="utf-8"?>
<!-- Generator: Adobe Illustrator 22.1.0, SVG Export Plug-In . SVG Version: 6.00 Build 0)  -->
<svg version="1.1" id="Layers_1_" xmlns="http://www.w3.org/2000/svg" xmlns:xlink="http://www.w3.org/1999/xlink" x="0px" y="0px"
	 viewBox="0 0 384 384" style="enable-background:new 0 0 384 384;" xml:space="preserve">
<style type="text/css">
	.st0{fill:#FEA512;}
	.st1{fill:#ED323B;}
</style>
<rect x="22" y="20.5" class="st0" width="340" height="118"/>
<path class="st0" d="M376,96c-4.4,0-8,3.6-8,8v40H216h-48H16v-40c0-4.4-3.6-8-8-8s-8,3.6-8,8v48c0,4.4,3.6,8,8,8h152v80h-32v-40
	c0-4.4-3.6-8-8-8H8c-4.4,0-8,3.6-8,8v112c0,4.4,3.6,8,8,8h24v48H8c-4.4,0-8,3.6-8,8s3.6,8,8,8h32h48h32c4.4,0,8-3.6,8-8s-3.6-8-8-8
	H96v-48h24c4.4,0,8-3.6,8-8v-56h40h48h40v56c0,4.4,3.6,8,8,8h24v48h-24c-4.4,0-8,3.6-8,8s3.6,8,8,8h32h48h32c4.4,0,8-3.6,8-8
	s-3.6-8-8-8h-24v-48h24c4.4,0,8-3.6,8-8V200c0-4.4-3.6-8-8-8H264c-4.4,0-8,3.6-8,8v40h-32v-80h152c4.4,0,8-3.6,8-8v-48
	C384,99.6,380.4,96,376,96z M80,368H48v-48h32V368z M112,304H88H40H16v-96h96V304z M208,240h-32v-80h32V240z M336,368h-32v-48h32
	V368z M272,208h96v96h-24h-48h-24V208z"/>
<path class="st0" d="M376,0H8C3.6,0,0,3.6,0,8v48c0,4.4,3.6,8,8,8s8-3.6,8-8V16h352v40c0,4.4,3.6,8,8,8s8-3.6,8-8V8
	C384,3.6,380.4,0,376,0z"/>
<path class="st1" d="M104,112c4.4,0,8-3.6,8-8V56c0-4.4-3.6-8-8-8H56c-4.4,0-8,3.6-8,8v48c0,4.4,3.6,8,8,8H104z M64,64h32v32H64V64z
	"/>
<path class="st1" d="M328,112c4.4,0,8-3.6,8-8V56c0-4.4-3.6-8-8-8H184c-4.4,0-8,3.6-8,8v48c0,4.4,3.6,8,8,8H328z M192,64h128v32H192
	V64z"/>
<circle class="st1" cx="376" cy="80" r="8"/>
<circle class="st1" cx="8" cy="80" r="8"/>
<rect x="54.7" y="61.2" class="st1" width="52.9" height="41.8"/>
<rect x="186.7" y="61.2" class="st1" width="140.3" height="41.8"/>
<rect x="8.7" y="201.9" class="st1" width="110.9" height="109.1"/>
<rect x="264.7" y="201.9" class="st1" width="110.9" height="109.1"/>
<rect x="179" y="163.5" class="st0" width="26" height="72.5"/>
</svg>
