<?xml version="1.0" encoding="utf-8"?>
<!-- Generator: Adobe Illustrator 22.1.0, SVG Export Plug-In . SVG Version: 6.00 Build 0)  -->
<svg version="1.1" id="Capa_1" xmlns="http://www.w3.org/2000/svg" xmlns:xlink="http://www.w3.org/1999/xlink" x="0px" y="0px"
	 viewBox="0 0 512 512" style="enable-background:new 0 0 512 512;" xml:space="preserve">
<style type="text/css">
	.st0{fill:#F05540;}
	.st1{fill:#F3705A;}
	.st2{fill:#FFD15C;}
	.st3{fill:#415A6B;}
	.st4{fill:#344A5E;}
	.st5{fill:#8AD7F8;}
</style>
<rect x="382.9" y="73.6" class="st0" width="58.7" height="102.4"/>
<rect x="360.5" y="21.3" class="st1" width="103.5" height="55.5"/>
<path class="st2" d="M44.8,276.3V512h418.1V276.3c-82.1-82.1-128-128-209.1-209.1l0,0C172.8,149.3,126.9,195.2,44.8,276.3z"/>
<path class="st3" d="M216.5,512H90.7V388.3c0-35.2,28.8-62.9,62.9-62.9l0,0c35.2,0,62.9,28.8,62.9,62.9V512z"/>
<rect x="253.9" y="325.3" class="st4" width="164.3" height="144"/>
<g>
	<rect x="270.9" y="342.4" class="st5" width="56.5" height="109.9"/>
	<rect x="344.5" y="342.4" class="st5" width="56.5" height="109.9"/>
</g>
<path class="st1" d="M502.4,232.5L279.5,9.6c-12.8-12.8-35.2-12.8-48,0L9.6,232.5c-12.8,12.8-12.8,35.2,0,48
	c12.8,12.8,35.2,12.8,48,0L256,82.1l198.4,198.4c12.8,12.8,35.2,12.8,48,0C515.2,266.7,515.2,245.3,502.4,232.5z"/>
</svg>
