<?xml version="1.0" encoding="utf-8"?>
<!-- Generator: Adobe Illustrator 22.1.0, SVG Export Plug-In . SVG Version: 6.00 Build 0)  -->
<svg version="1.1" id="Layer_1" xmlns="http://www.w3.org/2000/svg" xmlns:xlink="http://www.w3.org/1999/xlink" x="0px" y="0px"
	 viewBox="0 0 512 512" style="enable-background:new 0 0 512 512;" xml:space="preserve">
<style type="text/css">
	.st0{fill:#447E34;}
	.st1{fill:#7BB444;}
</style>
<path id="XMLID_2_" class="st0" d="M187.3,397.7c-11.3,0-22.4,4.6-30.4,12.6s-12.6,19.1-12.6,30.4s4.6,22.4,12.6,30.4
	s19.1,12.6,30.4,12.6s22.4-4.6,30.4-12.6s12.6-19.1,12.6-30.4s-4.6-22.4-12.6-30.4C209.7,402.3,198.7,397.7,187.3,397.7z"/>
<path id="XMLID_3_" class="st0" d="M322,395c-11.3,0-22.4,4.6-30.4,12.6S279,426.7,279,438s4.6,22.4,12.6,30.4S310.7,481,322,481
	s22.4-4.6,30.4-12.6S365,449.3,365,438s-4.6-22.4-12.6-30.4S333.4,395,322,395z"/>
<path id="XMLID_4_" class="st0" d="M458,397c-11.3,0-22.4,4.6-30.4,12.6S415,428.7,415,440s4.6,22.4,12.6,30.4S446.7,483,458,483
	s22.4-4.6,30.4-12.6S501,451.3,501,440s-4.6-22.4-12.6-30.4S469.4,397,458,397z"/>
<path id="XMLID_1_" class="st0" d="M53.3,395c-11.3,0-22.4,4.6-30.4,12.6S10.3,426.7,10.3,438s4.6,22.4,12.6,30.4S42,481,53.3,481
	s22.4-4.6,30.4-12.6s12.6-19.1,12.6-30.4s-4.6-22.4-12.6-30.4S64.7,395,53.3,395z"/>
<path id="XMLID_98_" class="st1" d="M64,384.9V316h16c5.5,0,10-4.5,10-10s-4.5-10-10-10H54c-5.5,0-10,4.5-10,10v78.9
	C19,389.6,0,411.6,0,438c0,29.8,24.2,54,54,54s54-24.2,54-54C108,411.6,89,389.6,64,384.9z M54,472c-18.7,0-34-15.3-34-34
	s15.3-34,34-34s34,15.3,34,34S72.7,472,54,472z"/>
<g id="XMLID_5_">
	<g>
		<path class="st1" d="M468,384.9c25,4.7,44,26.7,44,53.1c0,29.8-24.2,54-54,54s-54-24.2-54-54c0-26.4,19-48.4,44-53.1V316H333.4
			v68.9c25,4.7,44,26.7,44,53.1c0,29.8-24.2,54-54,54c-29.8,0-54-24.2-54-54c0-26.4,19-48.4,44-53.1V316H198.7v68.9
			c25,4.7,44,26.7,44,53.1c0,29.8-24.2,54-54,54s-54-24.2-54-54c0-26.4,19-48.4,44-53.1V316H160c-5.5,0-10-4.5-10-10s4.5-10,10-10
			h86v-72H114c-27.6,0-50-22.4-50-50V70c0-27.6,22.4-50,50-50h284c27.6,0,50,22.4,50,50v104c0,27.6-22.4,50-50,50H266v72h192
			c5.5,0,10,4.5,10,10V384.9z M492,438c0-18.7-15.3-34-34-34s-34,15.3-34,34s15.3,34,34,34S492,456.7,492,438z M428,174V88h-75.5
			c-5.5,0-10-4.5-10-10s4.5-10,10-10h75.4c-1-15.6-14-28-29.9-28H114c-16.5,0-30,13.5-30,30c0,0,0,58.4,0,87.7c0,9.8,0,16.3,0,16.3
			c0,16.5,13.5,30,30,30h284C414.5,204,428,190.5,428,174z M357.3,438c0-18.7-15.3-34-34-34c-18.7,0-34,15.3-34,34s15.3,34,34,34
			C342,472,357.3,456.7,357.3,438z M222.7,438c0-18.7-15.3-34-34-34s-34,15.3-34,34s15.3,34,34,34S222.7,456.7,222.7,438z"/>
		<path class="st0" d="M428,88v86c0,16.5-13.5,30-30,30H114c-16.5,0-30-13.5-30-30c0,0,0-6.5,0-16.3c0-29.3,0-87.7,0-87.7
			c0-16.5,13.5-30,30-30h284c15.9,0,28.9,12.4,29.9,28h-75.4c-5.5,0-10,4.5-10,10s4.5,10,10,10H428z"/>
	</g>
	<g>
	</g>
</g>
<path id="XMLID_130_" class="st0" d="M312.5,68c-2.6,0-5.2,1.1-7.1,2.9s-2.9,4.4-2.9,7.1s1.1,5.2,2.9,7.1c1.9,1.9,4.4,2.9,7.1,2.9
	s5.2-1.1,7.1-2.9c1.9-1.9,2.9-4.4,2.9-7.1s-1.1-5.2-2.9-7.1C317.7,69.1,315.1,68,312.5,68z"/>
<path id="XMLID_131_" class="st0" d="M120,296c-2.6,0-5.2,1.1-7.1,2.9s-2.9,4.4-2.9,7.1s1.1,5.2,2.9,7.1c1.9,1.9,4.4,2.9,7.1,2.9
	s5.2-1.1,7.1-2.9c1.9-1.9,2.9-4.4,2.9-7.1s-1.1-5.2-2.9-7.1C125.2,297.1,122.6,296,120,296z"/>
</svg>
