<?xml version="1.0" encoding="utf-8"?>
<!-- Generator: Adobe Illustrator 22.1.0, SVG Export Plug-In . SVG Version: 6.00 Build 0)  -->
<svg version="1.1" id="Layer_1" xmlns="http://www.w3.org/2000/svg" xmlns:xlink="http://www.w3.org/1999/xlink" x="0px" y="0px"
	 viewBox="0 0 32 32" style="enable-background:new 0 0 32 32;" xml:space="preserve">
<style type="text/css">
	.st0{fill:#F08300;}
	.st1{fill:#53372F;}
</style>
<rect x="16.7" y="3.7" class="st0" width="2.9" height="3.2"/>
<rect x="25.5" y="16.3" class="st0" width="2.9" height="3.2"/>
<rect x="12.5" y="25.5" class="st0" width="2.9" height="3.2"/>
<rect x="3.5" y="12.3" class="st0" width="2.9" height="3.2"/>
<title></title>
<path class="st1" d="M15,24h-2c-1.1,0-2,0.9-2,2H7c-0.6,0-1-0.4-1-1v-2.6l1.3,1.3c0.4,0.4,1,0.4,1.4,0l0,0c0.4-0.4,0.4-1,0-1.4l0,0
	l-3-3c-0.1-0.1-0.2-0.2-0.3-0.2c-0.2-0.1-0.5-0.1-0.8,0c-0.1,0-0.2,0.1-0.3,0.2l-3,3c-0.4,0.4-0.4,1,0,1.4s1,0.4,1.4,0L4,22.4V25
	c0,1.7,1.3,3,3,3h4c0,1.1,0.9,2,2,2h2c1.1,0,2-0.9,2-2v-2C17,24.9,16.1,24,15,24z M15,28h-2v-2h2V28z"/>
<path class="st1" d="M4,17h2c1.1,0,2-0.9,2-2v-2c0-1.1-0.9-2-2-2V7c0-0.6,0.4-1,1-1h2.6L8.3,7.3c-0.4,0.4-0.4,1,0,1.4l0,0
	c0.4,0.4,1,0.4,1.4,0l0,0l3-3c0.1-0.1,0.2-0.2,0.2-0.3c0.1-0.2,0.1-0.5,0-0.8c0-0.1-0.1-0.2-0.2-0.3l-3-3c-0.4-0.4-1-0.4-1.4,0
	s-0.4,1,0,1.4L9.6,4H7C5.3,4,4,5.3,4,7v4c-1.1,0-2,0.9-2,2v2C2,16.1,2.9,17,4,17z M4,13h2v2H4V13z"/>
<path class="st1" d="M28,15h-2c-1.1,0-2,0.9-2,2v2c0,1.1,0.9,2,2,2v4c0,0.6-0.4,1-1,1h-2.6l1.3-1.3c0.4-0.4,0.4-1,0-1.4
	s-1-0.4-1.4,0l-3,3c-0.1,0.1-0.2,0.2-0.2,0.3c-0.1,0.2-0.1,0.5,0,0.8c0,0.1,0.1,0.2,0.2,0.3l3,3c0.4,0.4,1,0.4,1.4,0l0,0
	c0.4-0.4,0.4-1,0-1.4l0,0L22.4,28H25c1.7,0,3-1.3,3-3v-4c1.1,0,2-0.9,2-2v-2C30,15.9,29.1,15,28,15z M28,19h-2v-2h2V19z"/>
<path class="st1" d="M30.7,8.3c-0.4-0.4-1-0.4-1.4,0l0,0L28,9.6V7c0-1.7-1.3-3-3-3h-4c0-1.1-0.9-2-2-2h-2c-1.1,0-2,0.9-2,2v2
	c0,1.1,0.9,2,2,2h2c1.1,0,2-0.9,2-2h4c0.6,0,1,0.4,1,1v2.6l-1.3-1.3c-0.4-0.4-1-0.4-1.4,0c-0.4,0.4-0.4,1,0,1.4l3,3
	c0.1,0.1,0.2,0.2,0.3,0.2c0.2,0.1,0.5,0.1,0.8,0c0.1,0,0.2-0.1,0.3-0.2l3-3C31.1,9.3,31.1,8.7,30.7,8.3L30.7,8.3z M19,6h-2V4h2V6z"
	/>
<rect x="9.4" y="9.4" class="st0" width="13.4" height="13.3"/>
</svg>
