<?xml version="1.0" encoding="utf-8"?>
<!-- Generator: Adobe Illustrator 22.1.0, SVG Export Plug-In . SVG Version: 6.00 Build 0)  -->
<svg version="1.1" id="Layer_1" xmlns="http://www.w3.org/2000/svg" xmlns:xlink="http://www.w3.org/1999/xlink" x="0px" y="0px"
	 viewBox="0 0 56 56" style="enable-background:new 0 0 56 56;" xml:space="preserve">
<style type="text/css">
	.st0{fill:url(#SVGID_1_);}
	.st1{fill:#FFFFFF;}
</style>
<linearGradient id="SVGID_1_" gradientUnits="userSpaceOnUse" x1="65.3021" y1="46.8224" x2="15.2718" y2="21.5851">
	<stop  offset="0" style="stop-color:#FBB040"/>
	<stop  offset="1" style="stop-color:#ED1C24"/>
</linearGradient>
<circle class="st0" cx="28" cy="28" r="28"/>
<g>
	<path class="st1" d="M22.7,11.5h10.7c0.9,0,1.7,0.8,1.7,1.7v2.5c0,0.9-0.8,1.7-1.7,1.7h-0.1c-0.9,0-1.7,0.8-1.7,1.7v17.7
		c0,0.9,0.8,1.7,1.7,1.7h0.1c0.9,0,1.7,0.8,1.7,1.7v2.5c0,0.9-0.8,1.7-1.7,1.7H22.7c-0.9,0-1.7-0.8-1.7-1.7v-2.5
		c0-0.9,0.8-1.7,1.7-1.7h0c0.9,0,1.7-0.8,1.7-1.7V19.2c0-0.9-0.8-1.7-1.7-1.7h0c-0.9,0-1.7-0.8-1.7-1.7v-2.5
		C20.9,12.3,21.7,11.5,22.7,11.5z"/>
</g>
</svg>
