<?xml version="1.0" encoding="utf-8"?>
<!-- Generator: Adobe Illustrator 22.1.0, SVG Export Plug-In . SVG Version: 6.00 Build 0)  -->
<svg version="1.1" id="Layer_1" xmlns="http://www.w3.org/2000/svg" xmlns:xlink="http://www.w3.org/1999/xlink" x="0px" y="0px"
	 viewBox="0 0 56 56" style="enable-background:new 0 0 56 56;" xml:space="preserve">
<style type="text/css">
	.st0{fill:url(#SVGID_1_);}
	.st1{fill:#FFFFFF;}
</style>
<linearGradient id="SVGID_1_" gradientUnits="userSpaceOnUse" x1="5.6284" y1="9.1215" x2="48.4433" y2="45.2548">
	<stop  offset="0" style="stop-color:#00AEEF"/>
	<stop  offset="1" style="stop-color:#1B75BC"/>
</linearGradient>
<circle class="st0" cx="28" cy="28" r="28"/>
<g>
	<path class="st1" d="M38.3,31.8c-0.1-3.9-0.3-8.7-0.3-13.4h-0.1c-1,4.2-2.4,8.8-3.6,12.6l-3.4,11c-0.3,1-1.3,1.8-2.4,1.8h-2
		c-1.1,0-2.1-0.8-2.4-1.8l-3-10.8c-1.1-3.8-2.2-8.5-2.9-12.7H18c-0.2,4.4-0.3,9.4-0.6,13.5l-0.5,10c-0.1,1.3-1.2,2.4-2.5,2.4h-1.8
		c-1.4,0-2.6-1.2-2.5-2.7l1.8-27.6c0.1-1.3,1.2-2.3,2.5-2.3H20c1.1,0,2.1,0.7,2.4,1.8l2.7,9.1c1,3.8,2,7.8,2.8,11.6H28
		c0.9-3.8,2-8.1,3.1-11.7l2.9-9.1c0.3-1,1.3-1.7,2.4-1.7h5.4c1.3,0,2.4,1,2.5,2.4l1.5,27.6c0.1,1.4-1.1,2.6-2.5,2.6h-2.2
		c-1.3,0-2.4-1.1-2.5-2.4L38.3,31.8z"/>
</g>
</svg>
