<?xml version="1.0" encoding="utf-8"?>
<!-- Generator: Adobe Illustrator 22.1.0, SVG Export Plug-In . SVG Version: 6.00 Build 0)  -->
<svg version="1.1" id="Layer_1" xmlns="http://www.w3.org/2000/svg" xmlns:xlink="http://www.w3.org/1999/xlink" x="0px" y="0px"
	 viewBox="0 0 56 56" style="enable-background:new 0 0 56 56;" xml:space="preserve">
<style type="text/css">
	.st0{fill:#BE4D9D;}
	.st1{fill:#FFFFFF;}
</style>
<circle class="st0" cx="28" cy="28" r="28"/>
<g>
	<path class="st1" d="M46.5,28c0,2.8-0.4,5.3-1.3,7.7c-0.9,2.3-2.1,4.3-3.7,6c-1.6,1.7-3.6,3-5.9,3.9c-2.3,0.9-4.8,1.3-7.7,1.3
		c-2.8,0-5.3-0.5-7.6-1.4c-2.2-0.9-4.2-2.2-5.8-3.9c-1.6-1.7-2.9-3.7-3.7-6c-0.9-2.3-1.3-4.9-1.3-7.6c0-2.8,0.4-5.4,1.3-7.7
		c0.9-2.3,2.1-4.3,3.7-6c1.6-1.7,3.6-2.9,5.9-3.8c2.3-0.9,4.8-1.3,7.6-1.3c2.8,0,5.4,0.5,7.7,1.4c2.3,0.9,4.3,2.2,5.9,3.9
		c1.6,1.7,2.9,3.7,3.7,6S46.5,25.2,46.5,28z M37.2,28c0-3.8-0.8-6.7-2.5-8.9C33,17,30.8,16,28,16c-1.8,0-3.4,0.5-4.8,1.4
		c-1.4,0.9-2.5,2.3-3.2,4.2c-0.7,1.8-1.1,4-1.1,6.4c0,2.4,0.4,4.6,1.1,6.4c0.7,1.8,1.8,3.2,3.2,4.2c1.4,1,3,1.4,4.9,1.4
		c2.8,0,5.1-1.1,6.7-3.2C36.4,34.7,37.2,31.8,37.2,28z"/>
</g>
</svg>
