<?xml version="1.0" encoding="utf-8"?>
<!-- Generator: Adobe Illustrator 22.1.0, SVG Export Plug-In . SVG Version: 6.00 Build 0)  -->
<svg version="1.1" id="Layer_1" xmlns="http://www.w3.org/2000/svg" xmlns:xlink="http://www.w3.org/1999/xlink" x="0px" y="0px"
	 viewBox="0 0 56 56" style="enable-background:new 0 0 56 56;" xml:space="preserve">
<style type="text/css">
	.st0{fill:#7B7A7A;}
</style>
<g>
	<path class="st0" d="M28,0C12.5,0,0,12.5,0,28s12.5,28,28,28s28-12.5,28-28S43.5,0,28,0z M40.4,21.7c-5.6,13.6-8.6,20.7-8.9,21.3
		c-1.1,1.1-2,1.6-2.9,1.6h-0.7c-2.1,0-3.7-1.5-4.5-4.6c-6.5-15.3-9.7-23.1-9.7-23.4l-0.2-1.3c0-0.9,0.5-1.9,1.5-3
		c0.9-0.6,1.8-0.9,2.7-0.9c2.3,0,3.8,1.4,4.6,4.3l5.7,13.6h0.2c4-9.8,6.2-15.1,6.7-16c1-1.3,2.2-1.9,3.5-1.9c2,0,3.4,1.1,4.2,3.3
		l0.1,0.9C42.6,16.4,41.9,18.5,40.4,21.7z"/>
</g>
</svg>
